<svg xmlns="http://www.w3.org/2000/svg" xmlns:xlink="http://www.w3.org/1999/xlink" width="40" zoomAndPan="magnify" viewBox="0 0 30 30.000001" height="40" preserveAspectRatio="xMidYMid meet" version="1.0"><defs><clipPath id="04adc46f46"><path d="M 9.195312 8.710938 L 20.804688 8.710938 L 20.804688 20.324219 L 9.195312 20.324219 Z M 9.195312 8.710938 " clip-rule="nonzero"/></clipPath></defs><g clip-path="url(#04adc46f46)"><path fill="#000000" d="M 16.089844 9.796875 C 16.089844 9.652344 16.0625 9.515625 16.003906 9.382812 C 15.949219 9.25 15.871094 9.128906 15.769531 9.027344 C 15.667969 8.925781 15.550781 8.847656 15.417969 8.792969 C 15.285156 8.738281 15.144531 8.710938 15 8.710938 C 14.855469 8.710938 14.714844 8.738281 14.582031 8.792969 C 14.449219 8.847656 14.332031 8.925781 14.230469 9.027344 C 14.128906 9.128906 14.050781 9.25 13.996094 9.382812 C 13.9375 9.515625 13.910156 9.652344 13.910156 9.796875 C 13.910156 9.941406 13.9375 10.082031 13.996094 10.214844 C 14.050781 10.347656 14.128906 10.464844 14.230469 10.566406 C 14.332031 10.671875 14.449219 10.75 14.582031 10.804688 C 14.714844 10.859375 14.855469 10.886719 15 10.886719 C 15.144531 10.886719 15.285156 10.859375 15.417969 10.804688 C 15.550781 10.75 15.667969 10.671875 15.769531 10.566406 C 15.871094 10.464844 15.949219 10.347656 16.003906 10.214844 C 16.0625 10.082031 16.089844 9.941406 16.089844 9.796875 Z M 16.089844 19.234375 C 16.089844 19.089844 16.0625 18.949219 16.003906 18.816406 C 15.949219 18.683594 15.871094 18.566406 15.769531 18.464844 C 15.667969 18.363281 15.550781 18.285156 15.417969 18.226562 C 15.285156 18.171875 15.144531 18.144531 15 18.144531 C 14.855469 18.144531 14.714844 18.171875 14.582031 18.226562 C 14.449219 18.285156 14.332031 18.363281 14.230469 18.464844 C 14.128906 18.566406 14.050781 18.683594 13.996094 18.816406 C 13.9375 18.949219 13.910156 19.089844 13.910156 19.234375 C 13.910156 19.378906 13.9375 19.515625 13.996094 19.652344 C 14.050781 19.785156 14.128906 19.902344 14.230469 20.003906 C 14.332031 20.105469 14.449219 20.183594 14.582031 20.238281 C 14.714844 20.296875 14.855469 20.324219 15 20.324219 C 15.144531 20.324219 15.285156 20.296875 15.417969 20.238281 C 15.550781 20.183594 15.667969 20.105469 15.769531 20.003906 C 15.871094 19.902344 15.949219 19.785156 16.003906 19.652344 C 16.0625 19.515625 16.089844 19.378906 16.089844 19.234375 Z M 10.28125 15.605469 C 10.425781 15.605469 10.566406 15.578125 10.699219 15.523438 C 10.832031 15.464844 10.949219 15.386719 11.050781 15.285156 C 11.152344 15.183594 11.234375 15.066406 11.289062 14.933594 C 11.34375 14.800781 11.371094 14.660156 11.371094 14.515625 C 11.371094 14.371094 11.34375 14.234375 11.289062 14.097656 C 11.234375 13.964844 11.152344 13.847656 11.050781 13.746094 C 10.949219 13.644531 10.832031 13.566406 10.699219 13.511719 C 10.566406 13.453125 10.425781 13.425781 10.28125 13.425781 C 10.136719 13.425781 10 13.453125 9.867188 13.511719 C 9.730469 13.566406 9.613281 13.644531 9.511719 13.746094 C 9.410156 13.847656 9.332031 13.964844 9.277344 14.097656 C 9.222656 14.234375 9.195312 14.371094 9.195312 14.515625 C 9.195312 14.660156 9.222656 14.800781 9.277344 14.933594 C 9.332031 15.066406 9.410156 15.183594 9.511719 15.285156 C 9.613281 15.386719 9.730469 15.464844 9.867188 15.523438 C 10 15.578125 10.136719 15.605469 10.28125 15.605469 Z M 20.804688 14.515625 C 20.804688 14.371094 20.777344 14.234375 20.722656 14.097656 C 20.667969 13.964844 20.589844 13.847656 20.488281 13.746094 C 20.386719 13.644531 20.269531 13.566406 20.132812 13.511719 C 20 13.453125 19.863281 13.425781 19.71875 13.425781 C 19.574219 13.425781 19.433594 13.453125 19.300781 13.511719 C 19.167969 13.566406 19.050781 13.644531 18.949219 13.746094 C 18.847656 13.847656 18.765625 13.964844 18.710938 14.097656 C 18.65625 14.234375 18.628906 14.371094 18.628906 14.515625 C 18.628906 14.660156 18.65625 14.800781 18.710938 14.933594 C 18.765625 15.066406 18.847656 15.183594 18.949219 15.285156 C 19.050781 15.386719 19.167969 15.464844 19.300781 15.523438 C 19.433594 15.578125 19.574219 15.605469 19.71875 15.605469 C 19.863281 15.605469 20 15.578125 20.132812 15.523438 C 20.269531 15.464844 20.386719 15.386719 20.488281 15.285156 C 20.589844 15.183594 20.667969 15.066406 20.722656 14.933594 C 20.777344 14.800781 20.804688 14.660156 20.804688 14.515625 Z M 12.433594 18.621094 C 12.535156 18.519531 12.617188 18.402344 12.671875 18.269531 C 12.726562 18.132812 12.753906 17.996094 12.753906 17.851562 C 12.753906 17.707031 12.726562 17.566406 12.671875 17.433594 C 12.617188 17.300781 12.539062 17.183594 12.433594 17.082031 C 12.332031 16.980469 12.214844 16.898438 12.082031 16.84375 C 11.949219 16.789062 11.808594 16.761719 11.664062 16.761719 C 11.519531 16.761719 11.382812 16.789062 11.246094 16.84375 C 11.113281 16.902344 10.996094 16.980469 10.894531 17.082031 C 10.792969 17.183594 10.714844 17.300781 10.660156 17.433594 C 10.601562 17.566406 10.574219 17.707031 10.574219 17.851562 C 10.574219 17.996094 10.601562 18.136719 10.65625 18.269531 C 10.714844 18.402344 10.792969 18.519531 10.894531 18.621094 C 10.996094 18.722656 11.113281 18.804688 11.246094 18.859375 C 11.382812 18.914062 11.519531 18.941406 11.664062 18.941406 C 11.808594 18.941406 11.949219 18.914062 12.082031 18.859375 C 12.214844 18.800781 12.332031 18.722656 12.433594 18.621094 Z M 12.433594 11.949219 C 12.542969 11.847656 12.625 11.730469 12.683594 11.59375 C 12.742188 11.460938 12.773438 11.320312 12.777344 11.171875 C 12.777344 11.023438 12.753906 10.882812 12.695312 10.746094 C 12.640625 10.609375 12.5625 10.488281 12.457031 10.386719 C 12.351562 10.28125 12.234375 10.203125 12.097656 10.148438 C 11.960938 10.089844 11.816406 10.066406 11.671875 10.066406 C 11.523438 10.070312 11.382812 10.101562 11.246094 10.160156 C 11.113281 10.21875 10.996094 10.304688 10.894531 10.410156 C 10.792969 10.511719 10.714844 10.628906 10.660156 10.765625 C 10.601562 10.898438 10.574219 11.035156 10.574219 11.179688 C 10.574219 11.324219 10.601562 11.464844 10.65625 11.597656 C 10.714844 11.730469 10.792969 11.847656 10.894531 11.953125 C 10.996094 12.054688 11.113281 12.132812 11.246094 12.1875 C 11.382812 12.242188 11.519531 12.269531 11.664062 12.269531 C 11.808594 12.269531 11.949219 12.242188 12.082031 12.1875 C 12.214844 12.132812 12.332031 12.054688 12.433594 11.949219 Z M 17.566406 18.621094 C 17.667969 18.722656 17.785156 18.800781 17.917969 18.859375 C 18.050781 18.914062 18.191406 18.941406 18.335938 18.941406 C 18.480469 18.941406 18.617188 18.914062 18.753906 18.859375 C 18.886719 18.804688 19.003906 18.722656 19.105469 18.621094 C 19.207031 18.519531 19.285156 18.402344 19.34375 18.269531 C 19.398438 18.136719 19.425781 17.996094 19.425781 17.851562 C 19.425781 17.707031 19.398438 17.566406 19.339844 17.433594 C 19.285156 17.300781 19.207031 17.183594 19.105469 17.082031 C 19.003906 16.980469 18.886719 16.898438 18.753906 16.84375 C 18.617188 16.789062 18.480469 16.761719 18.335938 16.761719 C 18.191406 16.761719 18.050781 16.789062 17.917969 16.84375 C 17.785156 16.898438 17.667969 16.980469 17.566406 17.082031 C 17.460938 17.183594 17.382812 17.300781 17.328125 17.433594 C 17.273438 17.566406 17.246094 17.707031 17.246094 17.851562 C 17.246094 17.996094 17.273438 18.132812 17.328125 18.269531 C 17.382812 18.402344 17.464844 18.519531 17.566406 18.621094 Z M 17.566406 18.621094 " fill-opacity="1" fill-rule="nonzero"/></g></svg>